<?xml version="1.0" encoding="utf-8"?><!-- Uploaded to: SVG Repo, www.svgrepo.com, Generator: SVG Repo Mixer Tools -->
<svg fill="#000000" width="800px" height="800px" viewBox="0 0 24 24" id="backpack" data-name="Flat Line" xmlns="http://www.w3.org/2000/svg" class="icon flat-line"><path id="secondary" d="M15,5H9A4,4,0,0,0,5,9V20a1,1,0,0,0,1,1H9V16a1,1,0,0,1,1-1h4a1,1,0,0,1,1,1v5h3a1,1,0,0,0,1-1V9A4,4,0,0,0,15,5Z" style="fill: rgb(44, 169, 188); stroke-width: 2;"></path><path id="primary" d="M9,10h6m0,6a1,1,0,0,0-1-1H10a1,1,0,0,0-1,1v5h6ZM14,4a1,1,0,0,0-1-1H11a1,1,0,0,0-1,1V5h4Zm5,15h1a1,1,0,0,0,1-1V15H19ZM5,15H3v3a1,1,0,0,0,1,1H5Zm14,5V9a4,4,0,0,0-4-4H9A4,4,0,0,0,5,9V20a1,1,0,0,0,1,1H18A1,1,0,0,0,19,20Z" style="fill: none; stroke: rgb(0, 0, 0); stroke-linecap: round; stroke-linejoin: round; stroke-width: 2;"></path></svg>